<svg xmlns="http://www.w3.org/2000/svg" viewBox="0 0 3333 2740" shape-rendering="geometricPrecision" text-rendering="geometricPrecision" image-rendering="optimizeQuality" fill-rule="evenodd" clip-rule="evenodd"><path d="M134 775h2378c37 0 70 15 94 39s39 58 39 94v1698c0 37-15 70-39 94-2 2-4 4-7 6-23 21-54 33-88 33H133c-37 0-70-15-94-39s-39-58-39-94V908c0-37 15-70 39-94s58-39 94-39zm754-617c-44 0-79-36-79-79 0-44 36-79 79-79h2366c44 0 79 36 79 79v1668c0 44-36 79-79 79-44 0-79-36-79-79V159H888zM530 559c-44 0-79-36-79-79 0-44 36-79 79-79h2366c44 0 79 36 79 79v1668c0 44-36 79-79 79-44 0-79-36-79-79V560H530zm1957 374H159v1647h2328V933z" fill-rule="nonzero"/></svg>